<svg width="605" height="405" viewBox="0 0 605 405" fill="none" xmlns="http://www.w3.org/2000/svg">
<path d="M546.802 217.263C542.434 184.716 531.596 153.333 514.906 124.908C498.216 96.4833 476.001 71.5721 449.529 51.5972C423.057 31.6224 392.848 16.9749 360.625 8.49122C328.402 0.007513 294.797 -2.14631 261.729 2.15273C228.66 6.45176 196.776 17.1195 167.896 33.5468C139.016 49.974 113.706 71.8392 93.4118 97.8938C73.1173 123.948 58.2355 153.682 49.616 185.398C40.9966 217.113 38.8083 250.189 43.1761 282.737L54.7884 281.227C50.622 250.18 52.7094 218.63 60.9314 188.377C69.1533 158.124 83.3489 129.761 102.707 104.908C122.066 80.0551 146.209 59.1982 173.757 43.5285C201.305 27.8587 231.719 17.6829 263.262 13.5822C294.806 9.48137 326.861 11.5359 357.598 19.6284C388.335 27.7208 417.152 41.6928 442.402 60.7466C467.653 79.8003 488.844 103.563 504.764 130.677C520.685 157.791 531.023 187.726 535.19 218.773L546.802 217.263Z" fill="#1D1D1D"/>
<path fill-rule="evenodd" clip-rule="evenodd" d="M548.989 221.394C527.504 228.432 505.837 234.654 483.989 240.059C474.854 211.207 455.854 201.01 426.989 209.469C420.889 213.305 419.389 218.663 422.489 225.542C426.239 231.069 428.739 237.117 429.989 243.689C429.724 248.903 427.724 253.224 423.989 256.651C411.715 259.68 399.382 262.445 386.989 264.947C385.304 255.403 384.47 245.724 384.489 235.911C380.701 231.086 375.867 229.531 369.989 231.245C356.824 235.948 350.824 245.626 351.989 260.28C352.156 263.564 352.322 266.847 352.489 270.131C352.906 271.434 353.739 272.126 354.989 272.205C302.582 282.759 249.582 289.844 195.989 293.463C177.151 294.323 158.484 294.15 139.989 292.945C141.989 292.945 143.989 292.945 145.989 292.945C145.322 289.489 144.656 286.031 143.989 282.575C143.823 273.927 143.989 265.286 144.489 256.651C145.96 252.419 147.627 248.271 149.489 244.207C152.206 240.879 154.706 237.421 156.989 233.838C162.856 227.075 168.856 220.335 174.989 213.617C176.896 212.453 178.896 211.589 180.989 211.024C190.958 210.308 200.958 209.616 210.989 208.95C212.629 208.1 214.296 207.236 215.989 206.358C219.287 201.899 222.954 197.751 226.989 193.914C229.678 191.919 232.678 190.709 235.989 190.285C244.765 189.828 253.431 190.346 261.989 191.84C262.489 192.359 262.989 192.877 263.489 193.396C262.008 209.842 268.841 215.199 283.989 209.469C290.281 202.423 297.281 196.374 304.989 191.322C309.57 190.174 314.237 190.002 318.989 190.803C327.483 193.4 335.65 196.684 343.489 200.655C348.65 199.961 351.15 196.85 350.989 191.322C349.12 176.767 341.12 169.335 326.989 169.027C321.051 167.363 317.551 163.388 316.489 157.102C316.156 151.917 315.822 146.732 315.489 141.547C313.008 139.666 310.174 138.976 306.989 139.473C302.686 138.743 299.186 140.127 296.489 143.621C292.322 150.88 288.156 158.139 283.989 165.398C276.882 170.724 269.548 170.898 261.989 165.916C257.846 161.527 253.512 157.379 248.989 153.472C246.839 152.009 244.505 151.144 241.989 150.88C240.88 150.061 239.547 149.542 237.989 149.325C230.989 148.633 223.989 148.633 216.989 149.325C215.822 150.535 214.656 151.744 213.489 152.954C212.489 158.484 211.489 164.015 210.489 169.545C209.36 172.961 207.527 175.726 204.989 177.841C199.313 178.013 193.646 177.84 187.989 177.323C185.55 176.52 183.716 174.965 182.489 172.656C180.866 160.659 180.532 148.561 181.489 136.362C182.947 133.811 184.78 131.564 186.989 129.622C191.358 128.149 194.858 125.556 197.489 121.845C197.822 116.315 198.156 110.783 198.489 105.253C201.212 99.4338 205.712 97.0136 211.989 97.9945C219.339 100.933 226.672 104.217 233.989 107.846C247.392 108.825 260.725 108.479 273.989 106.809C279.78 103.621 282.946 98.6095 283.489 91.7727C284.156 82.0947 284.156 72.4156 283.489 62.7376C282.606 60.0394 281.106 57.7923 278.989 55.9973C272.076 53.8321 267.909 56.4245 266.489 63.7745C266.156 68.9594 265.822 74.1442 265.489 79.3291C265.018 81.1396 264.351 82.8683 263.489 84.5139C257.723 89.1938 253.056 88.1568 249.489 81.403C248.822 70.688 248.822 59.972 249.489 49.257C249.954 47.7731 250.788 46.564 251.989 45.6276C261.059 39.3394 270.392 33.4629 279.989 27.9991C285.576 26.8646 291.243 26.3462 296.989 26.4436C302.735 26.3462 308.402 26.8646 313.989 27.9991C320.561 32.0453 326.561 36.8849 331.989 42.5167C339.322 47.3562 346.656 47.3562 353.989 42.5167C361.494 33.8704 369.161 25.4015 376.989 17.1109C377.723 15.6288 378.89 14.5918 380.489 14C409.647 24.2494 435.814 39.6318 458.989 60.1451C505.575 103.673 535.575 157.423 548.989 221.394Z" fill="#1D1D1D"/>
<path fill-rule="evenodd" clip-rule="evenodd" d="M564.49 173.5C563.883 173.624 563.55 173.957 563.49 174.5C565.256 176.771 567.256 178.937 569.49 181C566.874 182.709 565.874 184.876 566.49 187.5C568.66 185.914 570.994 184.58 573.49 183.5C582.787 189.198 583.787 187.865 576.49 179.5C577.583 177.651 578.916 175.984 580.49 174.5C580.24 174.334 579.99 174.167 579.74 174C579.49 173.833 579.24 173.667 578.99 173.5C576.914 175.233 574.581 176.566 571.99 177.5C569.374 176.385 566.874 175.051 564.49 173.5ZM46.3143 199.752C46.645 198.175 46.8969 196.973 47.0811 195.5C46.2967 196.171 45.2108 196.896 43.8747 197.788C38.2409 201.549 28.1597 208.278 17.4889 226.447C11.0943 242.881 13.6992 257.529 25.3026 270.392C34.94 279.231 45.847 286.055 58.0229 290.867C78.8134 298.84 100.301 303.501 122.487 304.85C171.582 306.863 220.418 304.201 268.995 296.86C369.614 281.127 467.287 254.493 562.012 216.959C575.148 211.075 588.171 204.916 601.081 198.481V197.483C584.359 204.033 567.428 210.025 550.291 215.46C529.307 222.239 508.144 228.232 486.804 233.438C467.551 239.381 448.017 244.707 428.201 249.418C416.213 252.336 404.167 255 392.062 257.409C381.966 260.652 371.548 262.982 360.807 264.4C309.62 274.564 257.854 281.389 205.508 284.875C187.109 285.702 168.876 285.536 150.812 284.375C140.162 283.833 129.677 283.121 119.489 281C102.523 279.156 86.637 273.377 71.697 264.899C70.6607 264.193 69.6051 263.602 68.5679 263.021C66.7505 262.004 64.9897 261.018 63.4893 259.5C59.9682 257.076 56.4893 254 53.6276 250.417C45.9916 239.647 42.7362 227.662 43.8604 214.462C44.9475 206.273 45.7469 202.459 46.3143 199.752Z" fill="#1D1D1D"/>
<path d="M18.8564 335.328V405H4.54883V335.328H18.8564ZM62.0186 335.328V405H47.7109V335.328H62.0186ZM83.4561 335.328V346.573H26.6084V335.328H83.4561ZM114.799 347.243L95.8496 405H80.585L106.473 335.328H116.187L114.799 347.243ZM130.542 405L111.545 347.243L110.014 335.328H119.823L145.854 405H130.542ZM129.681 379.064V390.31H92.8828V379.064H129.681ZM197.104 393.803V405H162.028V393.803H197.104ZM166.67 335.328V405H152.314V335.328H166.67ZM211.89 335.328H224.044L241.94 386.481L259.837 335.328H271.991L246.821 405H237.06L211.89 335.328ZM205.334 335.328H217.44L219.642 385.189V405H205.334V335.328ZM266.44 335.328H278.595V405H264.239V385.189L266.44 335.328ZM337.931 393.803V405H300.846V393.803H337.931ZM305.535 335.328V405H291.18V335.328H305.535ZM333.098 363.704V374.614H300.846V363.704H333.098ZM337.883 335.328V346.573H300.846V335.328H337.883ZM403.009 335.328V405H388.653L360.66 358.297V405H346.305V335.328H360.66L388.701 382.079V335.328H403.009ZM444.688 347.243L425.738 405H410.474L436.361 335.328H446.075L444.688 347.243ZM460.431 405L441.434 347.243L439.902 335.328H449.712L475.743 405H460.431ZM459.569 379.064V390.31H422.771V379.064H459.569ZM482.203 335.328H508.187C513.514 335.328 518.092 336.126 521.92 337.721C525.78 339.316 528.747 341.676 530.82 344.803C532.894 347.929 533.931 351.773 533.931 356.335C533.931 360.067 533.293 363.273 532.017 365.953C530.772 368.601 529.002 370.818 526.705 372.604C524.44 374.359 521.776 375.763 518.714 376.815L514.168 379.208H491.582L491.486 368.011H508.282C510.802 368.011 512.892 367.564 514.551 366.671C516.21 365.778 517.454 364.534 518.283 362.938C519.145 361.343 519.575 359.493 519.575 357.388C519.575 355.155 519.16 353.225 518.331 351.598C517.502 349.971 516.242 348.727 514.551 347.865C512.86 347.004 510.739 346.573 508.187 346.573H496.559V405H482.203V335.328ZM521.154 405L505.268 373.944L520.437 373.849L536.515 404.33V405H521.154ZM573.312 347.243L554.363 405H539.099L564.986 335.328H574.7L573.312 347.243ZM589.056 405L570.059 347.243L568.527 335.328H578.337L604.368 405H589.056ZM588.194 379.064V390.31H551.396V379.064H588.194Z" fill="#1D1D1D"/>
</svg>
