<svg width="605" height="405" viewBox="0 0 605 405" fill="none" xmlns="http://www.w3.org/2000/svg">
<path fill-rule="evenodd" clip-rule="evenodd" d="M514.917 124.908C531.607 153.333 542.445 184.716 546.813 217.263L519.611 220.8C519.688 221.04 519.743 221.284 519.774 221.532C521.834 237.683 425.683 263.249 305.015 278.636C185.172 293.917 86.2181 293.41 82.8533 277.58L43.1871 282.737C38.8193 250.189 41.0076 217.113 49.627 185.398C58.2464 153.682 73.1282 123.948 93.4227 97.8938C113.717 71.8391 139.027 49.974 167.907 33.5467C196.787 17.1194 228.671 6.45169 261.74 2.15265C294.808 -2.14638 328.413 0.00743675 360.636 8.49114C392.859 16.9748 423.068 31.6223 449.54 51.5972C476.011 71.572 498.226 96.4832 514.917 124.908Z" fill="#48A5F2"/>
<path fill-rule="evenodd" clip-rule="evenodd" d="M549 221.394C527.515 228.432 505.848 234.654 484 240.059C474.865 211.207 455.865 201.01 427 209.469C420.9 213.305 419.4 218.663 422.5 225.542C426.25 231.069 428.75 237.117 430 243.689C429.735 248.903 427.735 253.224 424 256.651C411.726 259.68 399.393 262.445 387 264.947C385.315 255.403 384.481 245.724 384.5 235.911C380.712 231.086 375.878 229.531 370 231.245C356.835 235.948 350.835 245.626 352 260.28C352.167 263.564 352.333 266.847 352.5 270.131C352.917 271.434 353.75 272.126 355 272.205C302.593 282.759 249.593 289.844 196 293.463C177.162 294.323 158.495 294.15 140 292.945C142 292.945 144 292.945 146 292.945C145.333 289.489 144.667 286.031 144 282.575C143.834 273.927 144 265.286 144.5 256.651C145.971 252.419 147.638 248.271 149.5 244.207C152.217 240.879 154.717 237.421 157 233.838C162.867 227.075 168.867 220.335 175 213.617C176.907 212.453 178.907 211.589 181 211.024C190.969 210.308 200.969 209.616 211 208.95C212.64 208.1 214.307 207.236 216 206.358C219.298 201.899 222.965 197.751 227 193.914C229.689 191.919 232.689 190.709 236 190.285C244.776 189.828 253.442 190.346 262 191.84C262.5 192.359 263 192.877 263.5 193.396C262.019 209.842 268.852 215.199 284 209.469C290.292 202.423 297.292 196.374 305 191.322C309.581 190.174 314.248 190.002 319 190.803C327.494 193.4 335.661 196.684 343.5 200.655C348.661 199.961 351.161 196.85 351 191.322C349.131 176.767 341.131 169.335 327 169.027C321.062 167.363 317.562 163.388 316.5 157.102C316.167 151.917 315.833 146.732 315.5 141.547C313.019 139.666 310.185 138.976 307 139.473C302.697 138.743 299.197 140.127 296.5 143.621C292.333 150.88 288.167 158.139 284 165.398C276.893 170.724 269.559 170.898 262 165.916C257.857 161.527 253.523 157.379 249 153.472C246.85 152.009 244.516 151.144 242 150.88C240.891 150.061 239.558 149.542 238 149.325C231 148.633 224 148.633 217 149.325C215.833 150.535 214.667 151.744 213.5 152.954C212.5 158.484 211.5 164.015 210.5 169.545C209.371 172.961 207.538 175.726 205 177.841C199.324 178.013 193.657 177.84 188 177.323C185.561 176.52 183.727 174.965 182.5 172.656C180.877 160.659 180.543 148.561 181.5 136.362C182.958 133.811 184.791 131.564 187 129.622C191.369 128.149 194.869 125.556 197.5 121.845C197.833 116.315 198.167 110.783 198.5 105.253C201.223 99.4338 205.723 97.0136 212 97.9945C219.35 100.933 226.683 104.217 234 107.846C247.403 108.825 260.736 108.479 274 106.809C279.791 103.621 282.957 98.6095 283.5 91.7727C284.167 82.0947 284.167 72.4156 283.5 62.7376C282.617 60.0394 281.117 57.7923 279 55.9973C272.087 53.8321 267.92 56.4245 266.5 63.7745C266.167 68.9594 265.833 74.1442 265.5 79.3291C265.029 81.1396 264.362 82.8683 263.5 84.5139C257.734 89.1938 253.067 88.1568 249.5 81.403C248.833 70.688 248.833 59.972 249.5 49.257C249.965 47.7731 250.799 46.564 252 45.6276C261.07 39.3394 270.403 33.4629 280 27.9991C285.587 26.8646 291.254 26.3462 297 26.4436C302.746 26.3462 308.413 26.8646 314 27.9991C320.572 32.0453 326.572 36.8849 332 42.5167C339.333 47.3562 346.667 47.3562 354 42.5167C361.505 33.8704 369.172 25.4015 377 17.1109C377.734 15.6288 378.901 14.5918 380.5 14C409.658 24.2494 435.825 39.6318 459 60.1451C505.586 103.673 535.586 157.423 549 221.394Z" fill="url(#paint0_linear_277_423)"/>
<path fill-rule="evenodd" clip-rule="evenodd" d="M564.501 173.5C563.894 173.624 563.561 173.957 563.501 174.5C565.267 176.771 567.267 178.937 569.501 181C566.885 182.709 565.885 184.876 566.501 187.5C568.671 185.914 571.005 184.58 573.501 183.5C582.798 189.198 583.798 187.865 576.501 179.5C577.594 177.651 578.927 175.984 580.501 174.5C580.251 174.334 580.001 174.167 579.751 174C579.501 173.833 579.251 173.667 579.001 173.5C576.925 175.233 574.592 176.566 572.001 177.5C569.385 176.385 566.885 175.051 564.501 173.5ZM46.325 199.752C46.6558 198.175 46.9077 196.973 47.0918 195.5C46.3074 196.171 45.2215 196.896 43.8854 197.788C38.2516 201.549 28.1704 208.278 17.4996 226.447C11.105 242.881 13.7099 257.529 25.3134 270.392C34.9507 279.231 45.8578 286.055 58.0336 290.867C78.8242 298.84 100.312 303.501 122.497 304.85C171.592 306.863 220.429 304.201 269.006 296.86C369.625 281.127 467.297 254.493 562.023 216.959C575.159 211.075 588.181 204.916 601.092 198.481V197.483C584.369 204.033 567.439 210.025 550.302 215.46C529.317 222.239 508.155 228.232 486.815 233.438C467.562 239.381 448.028 244.707 428.212 249.418C416.223 252.336 404.178 255 392.073 257.409C381.977 260.652 371.559 262.982 360.818 264.4C309.631 274.564 257.864 281.389 205.519 284.875C187.119 285.702 168.887 285.536 150.822 284.375C140.173 283.833 129.688 283.121 119.5 281C102.533 279.156 86.6477 273.377 71.7077 264.899C70.6715 264.193 69.6158 263.602 68.5786 263.021C66.7612 262.004 65.0005 261.018 63.5 259.5C59.9789 257.076 56.5 254 53.6384 250.417C46.0023 239.647 42.7469 227.662 43.8711 214.462C44.9582 206.273 45.7576 202.459 46.325 199.752Z" fill="url(#paint1_linear_277_423)"/>
<path d="M18.8672 335.328V405H4.55957V335.328H18.8672ZM62.0293 335.328V405H47.7217V335.328H62.0293ZM83.4668 335.328V346.573H26.6191V335.328H83.4668ZM114.81 347.243L95.8604 405H80.5957L106.483 335.328H116.197L114.81 347.243ZM130.553 405L111.556 347.243L110.024 335.328H119.834L145.865 405H130.553ZM129.691 379.064V390.31H92.8936V379.064H129.691ZM197.114 393.803V405H162.039V393.803H197.114ZM166.681 335.328V405H152.325V335.328H166.681ZM211.9 335.328H224.055L241.951 386.481L259.848 335.328H272.002L246.832 405H237.07L211.9 335.328ZM205.345 335.328H217.451L219.652 385.189V405H205.345V335.328ZM266.451 335.328H278.605V405H264.25V385.189L266.451 335.328ZM337.941 393.803V405H300.856V393.803H337.941ZM305.546 335.328V405H291.19V335.328H305.546ZM333.108 363.704V374.614H300.856V363.704H333.108ZM337.894 335.328V346.573H300.856V335.328H337.894ZM403.02 335.328V405H388.664L360.671 358.297V405H346.315V335.328H360.671L388.712 382.079V335.328H403.02ZM444.698 347.243L425.749 405H410.484L436.372 335.328H446.086L444.698 347.243ZM460.441 405L441.444 347.243L439.913 335.328H449.723L475.754 405H460.441ZM459.58 379.064V390.31H422.782V379.064H459.58ZM482.214 335.328H508.197C513.525 335.328 518.103 336.126 521.931 337.721C525.791 339.316 528.757 341.676 530.831 344.803C532.905 347.929 533.941 351.773 533.941 356.335C533.941 360.067 533.303 363.273 532.027 365.953C530.783 368.601 529.013 370.818 526.716 372.604C524.451 374.359 521.787 375.763 518.725 376.815L514.179 379.208H491.593L491.497 368.011H508.293C510.813 368.011 512.903 367.564 514.562 366.671C516.22 365.778 517.465 364.534 518.294 362.938C519.155 361.343 519.586 359.493 519.586 357.388C519.586 355.155 519.171 353.225 518.342 351.598C517.512 349.971 516.252 348.727 514.562 347.865C512.871 347.004 510.749 346.573 508.197 346.573H496.569V405H482.214V335.328ZM521.165 405L505.278 373.944L520.447 373.849L536.525 404.33V405H521.165ZM573.323 347.243L554.374 405H539.109L564.997 335.328H574.711L573.323 347.243ZM589.066 405L570.069 347.243L568.538 335.328H578.348L604.379 405H589.066ZM588.205 379.064V390.31H551.407V379.064H588.205Z" fill="#1D1D1D"/>
<defs>
<linearGradient id="paint0_linear_277_423" x1="454.5" y1="15.5555" x2="206.245" y2="270.987" gradientUnits="userSpaceOnUse">
<stop offset="0.121793" stop-color="#15B361"/>
<stop offset="0.953642" stop-color="#0EF77E"/>
</linearGradient>
<linearGradient id="paint1_linear_277_423" x1="135.592" y1="272.375" x2="446.113" y2="107.224" gradientUnits="userSpaceOnUse">
<stop stop-color="#FF0000"/>
<stop offset="1" stop-color="#DF0000"/>
</linearGradient>
</defs>
</svg>
